<svg id="Layer_1" enable-background="new 0 0 512 512" height="512" viewBox="0 0 512 512" width="512" xmlns="http://www.w3.org/2000/svg"><g><path d="m58.381 411.818 34.443 37.918c29.403 26.274 65.182 45.551 104.733 55.231s110.775 3.579 183.219-44.512c72.445-48.092 110.06-123.455 110.06-123.455 6.603-22.183 10.166-45.674 10.166-70.002 0-135.311-109.691-245.002-245.002-245.002s-245.002 109.691-245.002 245.002c0 54.185 17.603 104.251 47.383 144.82z" fill="#73c3f9"/><path d="m58.381 201.303v210.515c10.14 13.813 21.69 26.522 34.443 37.918h124.669c-3.299-12.083-5.07-24.79-5.07-37.905 0-79.438 64.628-144.065 144.066-144.065 15.871 0 31.149 2.586 45.44 7.349v-73.811c-283.484.079-303.667.035-343.548-.001z" fill="#2a428c"/><path d="m58.381 201.303v210.515c10.14 13.813 21.69 26.522 34.443 37.918h79.286c-22.5-5.829-20.5-30.332-20.5-30.332s0-163.089 0-187.317 30.153-28.638 30.153-28.638c-.877-.696-1.681-1.398-2.43-2.102-78.769.004-96.009-.021-120.952-.044z" fill="#1c2e7a"/><g><path d="m230.358 361.286c-4.523 0-8.19-3.666-8.19-8.19v-112.82c0-4.523 3.667-8.19 8.19-8.19s8.19 3.666 8.19 8.19v112.82c0 4.524-3.667 8.19-8.19 8.19z" fill="#5576b7"/></g><path d="m354.405 312.698c-54.581 0-98.828 44.247-98.828 98.827 0 42.099 26.327 78.044 63.412 92.285 54.552-14.473 101.628-47.287 134.232-91.448.002-.279.011-.557.011-.837 0-54.581-44.247-98.827-98.827-98.827z" fill="#425ea5"/><path d="m255.577 411.525c0 42.099 26.327 78.044 63.412 92.285 39.14-10.384 74.431-30.211 103.29-56.896-10.284.314-12.656-9.042-12.656-9.042l-55.658-84.889c-16.395-20.331.439-40.285.439-40.285-54.58 0-98.827 44.246-98.827 98.827z" fill="#2a428c"/><g><path d="m364.815 248.466h-268.913c-4.523 0-8.19-3.666-8.19-8.19 0-4.523 3.667-8.19 8.19-8.19h268.913c4.523 0 8.19 3.666 8.19 8.19s-3.667 8.19-8.19 8.19z" fill="#425ea5"/></g><g><path d="m217.304 419.404h-121.402c-4.523 0-8.19-3.666-8.19-8.19s3.667-8.19 8.19-8.19h121.402c4.523 0 8.19 3.666 8.19 8.19-.001 4.524-3.668 8.19-8.19 8.19z" fill="#425ea5"/></g><g><path d="m222.165 385.008h-126.263c-4.523 0-8.19-3.666-8.19-8.19s3.667-8.19 8.19-8.19h126.263c4.523 0 8.19 3.666 8.19 8.19s-3.667 8.19-8.19 8.19z" fill="#425ea5"/></g><g><path d="m133.917 276.261h-38.015c-4.523 0-8.19-3.666-8.19-8.19s3.667-8.19 8.19-8.19h38.015c4.523 0 8.19 3.666 8.19 8.19s-3.667 8.19-8.19 8.19z" fill="#5576b7"/></g><g><path d="m169.325 276.261h-9.525c-4.523 0-8.19-3.666-8.19-8.19s3.667-8.19 8.19-8.19h9.525c4.523 0 8.19 3.666 8.19 8.19s-3.667 8.19-8.19 8.19z" fill="#5576b7"/></g><path d="m197.558 504.967c14.448 3.536 29.395 5.798 44.722 6.644 1.324-2.463 2.572-4.923 3.737-7.372-10.62-12.921-19.051-27.705-24.746-43.784-5.106 14.376-12.643 29.739-23.713 44.512z" fill="#2a428c"/><path d="m327.955 501.253c-.049-.686-.083-1.376-.083-2.074 0-15.805 12.813-28.617 28.617-28.617 8.318 0 15.804 3.552 21.033 9.218 9.323-5.336 18.255-11.275 26.757-17.75-1.603-6.837-.716-14.272 3.073-20.834 6.801-11.78 20.71-16.886 33.181-13.046 20.365-23.3 36.38-50.492 46.8-80.312-23.689-48.345-73.375-81.637-130.844-81.637-80.429 0-145.629 65.2-145.629 145.629 0 38.774 15.157 74.005 39.865 100.102 1.754.038 3.511.068 5.275.068 25.042 0 49.201-3.766 71.955-10.747zm89.871-157.879c13.688-7.902 31.189-3.213 39.092 10.475 7.902 13.687 3.212 31.189-10.475 39.091s-31.189 3.213-39.091-10.475c-7.903-13.686-3.213-31.188 10.474-39.091zm-61.337-47.507c15.805 0 28.617 12.812 28.617 28.617s-12.812 28.617-28.617 28.617c-15.804 0-28.617-12.812-28.617-28.617s12.813-28.617 28.617-28.617zm-100.428 57.982c7.902-13.687 25.404-18.377 39.091-10.475s18.377 25.404 10.474 39.091c-7.902 13.687-25.404 18.377-39.091 10.475s-18.377-25.404-10.474-39.091zm10.474 76.873c13.687-7.902 31.189-3.213 39.091 10.475 7.902 13.687 3.213 31.189-10.474 39.091s-31.189 3.213-39.091-10.475c-7.903-13.687-3.213-31.188 10.474-39.091z" fill="#d3dcfb"/><path d="m407.352 441.197c.683-1.183 1.455-2.279 2.272-3.324-9.774 1.18-10.875-6.168-10.961-8.751-.021-.617-.213-1.21-.552-1.726l-43.706-66.61c-2.353-2.353-1.591-4.993-.807-6.509.211-.408.327-.848.368-1.292-14.622-1.279-26.093-13.546-26.093-28.5 0-6.992 2.511-13.396 6.676-18.366-.322-.221-.671-.405-1.058-.505-16-4.104-14.193-18.181-12.655-24.098.378-1.456-.206-3.02-1.499-3.788-2.611-1.552-3.953-3.499-4.567-5.449-60.095 17.94-103.909 73.626-103.909 139.554 0 38.774 15.157 74.005 39.865 100.102 1.753.035 3.51.065 5.274.065 25.041 0 49.201-3.766 71.955-10.747-.049-.686-.083-1.376-.083-2.074 0-15.805 12.813-28.617 28.617-28.617 8.318 0 15.804 3.552 21.033 9.218 9.323-5.336 18.255-11.275 26.757-17.75-1.603-6.836-.715-14.272 3.073-20.833zm-112.2 39.091c-13.687 7.902-31.189 3.213-39.091-10.475-7.903-13.687-3.213-31.189 10.474-39.091s31.189-3.213 39.091 10.475c7.903 13.687 3.214 31.189-10.474 39.091zm10.475-97.822c-7.902 13.687-25.404 18.377-39.091 10.475s-18.377-25.404-10.474-39.091c7.902-13.687 25.404-18.377 39.091-10.475s18.376 25.404 10.474 39.091z" fill="#bec8f7"/><path d="m262.399 511.917c-26.668-25.085-43.35-60.671-43.35-100.086 0-75.785 61.656-137.44 137.44-137.44 56.961 0 105.937 34.832 126.754 84.314 2.859-7.077 5.394-14.318 7.593-21.706-26.329-47.081-76.678-78.988-134.347-78.988-84.816 0-153.82 69.003-153.82 153.819 0 37.956 13.827 72.739 36.698 99.595 5.499.37 11.041.575 16.633.575 2.14 0 4.273-.028 6.399-.083z" fill="#e9efff"/><path d="m262.399 511.917c-26.668-25.085-43.35-60.671-43.35-100.086 0-63.376 43.121-116.86 101.561-132.68-.272-.578-.698-1.083-1.275-1.426-5.851-3.479-5.355-8.939-4.491-11.98.19-.669.147-1.357-.076-1.982-64.61 18.229-112.1 77.705-112.1 148.067 0 37.956 13.827 72.739 36.698 99.595 5.5.37 11.042.575 16.634.575 2.14 0 4.273-.028 6.399-.083z" fill="#d3dcfb"/><path d="m394.039 400.047-27.85-27.85c-6.481-6.481-17.087-6.481-23.568 0l-27.85 27.85c-6.481 6.481-6.481 17.087 0 23.568l27.85 27.85c6.481 6.481 17.087 6.481 23.568 0l27.85-27.85c6.481-6.481 6.481-17.086 0-23.568z" fill="#425ea5"/><path d="m342.62 451.465c6.481 6.481 17.087 6.481 23.568 0l25.684-25.684c-1.314-1.345-1.938-3.001-2.225-4.345-.257-1.203-1.535-1.881-2.701-1.488-12.302 4.149-16.117-5.35-16.843-7.637-.103-.323-.277-.619-.516-.858l-15.182-15.183c-8.363-8.363-3.243-17.788-.943-21.128.512-.744.457-1.712-.087-2.433-1.327-1.754-1.766-3.516-1.74-5.13-3.306.551-6.477 2.08-9.014 4.617l-27.85 27.85c-6.481 6.481-6.481 17.087 0 23.568z" fill="#2a428c"/><g><path d="m354.405 462.877c-6.214 0-12.045-2.408-16.417-6.78l-27.85-27.85c-4.372-4.371-6.78-10.201-6.78-16.416s2.408-12.044 6.78-16.417l27.85-27.85c4.372-4.373 10.202-6.78 16.417-6.78s12.045 2.408 16.417 6.78l27.85 27.85c4.372 4.372 6.78 10.202 6.78 16.417s-2.408 12.045-6.78 16.417l-27.85 27.849c-4.372 4.372-10.203 6.78-16.417 6.78zm0-88.989c-2.714 0-5.254 1.044-7.151 2.941l-27.85 27.85c-1.897 1.898-2.942 4.437-2.942 7.152 0 2.714 1.045 5.254 2.942 7.15l27.851 27.851c1.897 1.897 4.437 2.941 7.151 2.941s5.254-1.044 7.151-2.941l27.85-27.85c1.898-1.897 2.942-4.437 2.942-7.151 0-2.715-1.045-5.254-2.942-7.152l-27.85-27.85c-1.899-1.897-4.438-2.941-7.152-2.941z" fill="#5576b7"/></g><path d="m337.988 456.097c4.372 4.372 10.202 6.78 16.417 6.78s12.045-2.408 16.417-6.78l27.446-27.445c-.315-.26-.703-.438-1.132-.486-5.258-.59-6.951-4.214-7.488-6.729-.148-.694-.641-1.204-1.251-1.444l-26.84 26.84c-1.897 1.897-4.436 2.941-7.151 2.941-2.714 0-5.254-1.044-7.151-2.941l-27.851-27.851c-1.897-1.896-2.942-4.436-2.942-7.15 0-2.715 1.045-5.254 2.942-7.152l27.85-27.85c1.758-1.758 4.071-2.772 6.56-2.913-.018-.425-.167-.846-.439-1.206-3.344-4.422-1.103-8.908.235-10.883.21-.31.317-.663.342-1.021-6.043.115-11.699 2.492-15.963 6.758l-27.85 27.85c-4.372 4.372-6.78 10.202-6.78 16.417s2.408 12.045 6.78 16.416z" fill="#425ea5"/><ellipse cx="354.404" cy="411.831" fill="#1c2e7a" rx="15.56" ry="15.56" transform="matrix(.707 -.707 .707 .707 -187.406 371.225)"/><path d="m331.692 163.147-40.302 40.302h61.31l40.302-40.302z" fill="#5576b7"/><path d="m219.855 163.147-40.302 40.302h61.309l40.302-40.302z" fill="#5576b7"/><path d="m108.016 163.147-40.302 40.302h61.309l40.302-40.302z" fill="#2a428c"/><path d="m76.23 163.147c-1.526 10.681-10.708 18.926-21.804 18.926-.61 0-1.21-.043-1.808-.092v14.807c0 3.678 2.982 6.66 6.66 6.66h10.647l40.302-40.302h-33.997z" fill="#bec8f7"/><path d="m222.065 163.147h-54.95l-40.302 40.302h54.95z" fill="#e9efff"/><path d="m181.777 163.147h-14.662l-40.302 40.302h54.951c-23.348-18.532.013-40.302.013-40.302z" fill="#bec8f7"/><path d="m333.903 163.147h-54.95l-40.302 40.302h54.95z" fill="#e9efff"/><path d="m407.694 196.789v-26.982c0-3.678-2.982-6.66-6.66-6.66h-10.242l-40.302 40.302h50.544c3.678 0 6.66-2.982 6.66-6.66z" fill="#e9efff"/><path d="m314.691 61.991-51.655-24.087 57.612-20.97 51.656 24.088z" fill="#5576b7"/><path d="m209.598 100.242-51.656-24.088 57.612-20.969 51.656 24.088z" fill="#5576b7"/><path d="m104.504 138.493-51.655-24.088 57.612-20.969 51.655 24.088z" fill="#2a428c"/><path d="m45.975 139.66c2.605-1.085 5.458-1.69 8.451-1.69 8.408 0 15.727 4.733 19.446 11.673l32.711-11.906-51.656-24.087-10.005 3.642c-3.457 1.258-5.239 5.08-3.981 8.536z" fill="#bec8f7"/><path d="m211.675 99.486-51.636 18.794-51.656-24.087 51.637-18.795z" fill="#e9efff"/><path d="m108.383 94.193 51.656 24.087 19.514-7.102c-32.308-7.887-19.533-35.779-19.533-35.779z" fill="#bec8f7"/><path d="m316.769 61.235-51.637 18.794-51.655-24.087 51.636-18.795z" fill="#e9efff"/><path d="m374.603 4.384 9.228 25.354c1.258 3.456-.524 7.278-3.981 8.536l-9.625 3.503-51.655-24.086 47.496-17.287c3.457-1.259 7.279.524 8.537 3.98z" fill="#e9efff"/><circle cx="54.425" cy="160.022" fill="#2a428c" r="23.094"/><g><path d="m54.425 190.76c-16.949 0-30.738-13.789-30.738-30.738s13.789-30.738 30.738-30.738 30.738 13.789 30.738 30.738-13.789 30.738-30.738 30.738zm0-46.188c-8.52 0-15.451 6.931-15.451 15.45s6.931 15.451 15.451 15.451 15.45-6.931 15.45-15.451c.001-8.519-6.93-15.45-15.45-15.45z" fill="#5576b7"/></g><path d="m23.688 160.022c0 16.949 13.789 30.738 30.738 30.738 6.529 0 12.583-2.052 17.567-5.536-9.538-.164-10.35-8.148-10.253-11.597-2.179 1.176-4.669 1.846-7.314 1.846-8.52 0-15.45-6.931-15.45-15.451 0-5.583 2.986-10.468 7.436-13.184-8.994-1.728-9.141-8.861-8.519-12.708-8.534 5.468-14.205 15.027-14.205 25.892z" fill="#425ea5"/></g></svg>